<svg width="1347" height="391" viewBox="0 0 1347 391" fill="none" xmlns="http://www.w3.org/2000/svg">
<g clip-path="url(#clip0_2482_176)">
<path d="M113 -31.615V438.687" stroke="#EAEAEA"/>
<path d="M253 -31.2301V439.072" stroke="#EAEAEA"/>
<path d="M393 -30.8455V439.456" stroke="#EAEAEA"/>
<path d="M533 -30.4604V439.841" stroke="#EAEAEA"/>
<path d="M673 -30.0756V440.226" stroke="#EAEAEA"/>
<path d="M813 -29.6908V440.611" stroke="#EAEAEA"/>
<path d="M953 -29.3059V440.996" stroke="#EAEAEA"/>
<path d="M1093 -28.9209V441.381" stroke="#EAEAEA"/>
<path d="M1233 -28.5363V441.765" stroke="#EAEAEA"/>
<path d="M-447 42.2786L1793.5 42.2786" stroke="#EAEAEA"/>
<path d="M-447 130.797L1793.5 130.797" stroke="#EAEAEA"/>
<path d="M-447 207L1793.5 207" stroke="#EAEAEA"/>
<path d="M-447 283.202L1793.5 283.202" stroke="#EAEAEA"/>
<path d="M-447 359.405L1793.5 359.405" stroke="#EAEAEA"/>
<rect x="-74" width="1495" height="244" fill="url(#paint0_linear_2482_176)"/>
<rect x="1421" y="423" width="1495" height="244" transform="rotate(-180 1421 423)" fill="url(#paint1_linear_2482_176)"/>
<g clip-path="url(#clip1_2482_176)">
<mask id="mask0_2482_176" style="mask-type:luminance" maskUnits="userSpaceOnUse" x="79" y="94" width="69" height="69">
<path d="M79 94H148V163H79V94Z" fill="white"/>
</mask>
<g mask="url(#mask0_2482_176)">
<path d="M93.6052 94H96.716V97.0734H99.5622V94H102.673V103.303H99.5622V100.19H96.716V103.303H93.6081L93.6052 94ZM106.761 97.0849H104.024V94H112.612V97.0849H109.872V103.303H106.761V97.0849ZM113.975 94H117.218L119.213 97.2689L121.205 94H124.448V103.303H121.352V98.692L119.213 102.001H119.158L117.016 98.6949V103.303H113.975V94ZM125.995 94H129.109V100.23H133.479V103.306H125.995V94Z" fill="#F4F4F4"/>
<path fill-rule="evenodd" clip-rule="evenodd" d="M93.5073 157.457L87.625 107.562H139.375L133.49 157.452L113.471 163L93.5073 157.457ZM105.401 130.145L104.843 123.877H128.26L128.806 117.759H98.159L99.8092 136.266H121.018L120.308 144.201L113.483 146.047H113.477L106.663 144.207L106.226 139.328H100.079L100.936 148.936L113.471 152.415L126.026 148.936L127.556 131.789L127.705 130.148L105.401 130.145Z" fill="#F4F4F4"/>
</g>
</g>
<g clip-path="url(#clip2_2482_176)">
<path d="M242.504 239H248.52V241.515H245.02V244.031H248.52V246.546H242.504V239ZM249.721 239H255.739V241.189H252.239V241.625H255.739V246.656H249.721V244.36H253.221V243.921H249.721V239ZM256.943 239H262.956V241.189H259.456V241.625H262.956V246.656H256.943V244.36H260.443V243.921H256.943V239Z" fill="#F4F4F4"/>
<path fill-rule="evenodd" clip-rule="evenodd" d="M252.979 295L236.776 290.501L232 250.006H274L269.226 290.497L252.979 295ZM241.443 268.337L241.888 273.302H259.101L258.525 279.742L252.986 281.24H252.981L247.451 279.747L247.096 275.787H242.11L242.805 283.585L252.979 286.409L263.168 283.585L264.41 269.669L264.531 268.337L265.427 258.283H240.549L241.002 263.25H259.986L259.533 268.337H241.443Z" fill="#F4F4F4"/>
</g>
<path d="M1094 124.173C1097.18 124.173 1099.77 126.763 1099.77 130C1099.77 133.084 1097.18 135.704 1094 135.704C1090.82 135.704 1088.23 133.084 1088.23 130C1088.23 126.763 1090.82 124.173 1094 124.173ZM1079.72 154.667C1081.67 155.839 1085.92 154.05 1090.82 149.425C1089.22 147.606 1087.65 145.633 1086.17 143.567C1083.68 143.327 1081.21 142.957 1078.77 142.457C1077.2 149.055 1077.78 153.588 1079.72 154.667ZM1081.91 136.969L1081.02 135.396C1080.68 136.29 1080.34 137.184 1080.13 138.048C1080.96 138.233 1081.88 138.387 1082.84 138.541L1081.91 136.969ZM1102.08 134.625L1104.58 130L1102.08 125.375C1101.15 123.741 1100.17 122.292 1099.27 120.843C1097.61 120.75 1095.85 120.75 1094 120.75C1092.15 120.75 1090.39 120.75 1088.73 120.843C1087.83 122.292 1086.85 123.741 1085.92 125.375L1083.42 130L1085.92 134.625C1086.85 136.259 1087.83 137.709 1088.73 139.158C1090.39 139.25 1092.15 139.25 1094 139.25C1095.85 139.25 1097.61 139.25 1099.27 139.158C1100.17 137.709 1101.15 136.259 1102.08 134.625ZM1094 113.905C1093.41 114.584 1092.8 115.293 1092.18 116.125H1095.82C1095.2 115.293 1094.59 114.584 1094 113.905ZM1094 146.095C1094.59 145.417 1095.2 144.708 1095.82 143.875H1092.18C1092.8 144.708 1093.41 145.417 1094 146.095ZM1108.25 105.334C1106.33 104.162 1102.08 105.95 1097.18 110.575C1098.78 112.394 1100.35 114.368 1101.83 116.434C1104.36 116.68 1106.86 117.05 1109.23 117.544C1110.8 110.945 1110.22 106.413 1108.25 105.334ZM1106.09 123.032L1106.98 124.604C1107.32 123.71 1107.66 122.816 1107.88 121.953C1107.04 121.768 1106.12 121.614 1105.16 121.459L1106.09 123.032ZM1110.56 101.294C1115.09 103.884 1115.58 110.699 1113.67 118.654C1121.5 120.966 1127.15 124.789 1127.15 130C1127.15 135.211 1121.5 139.034 1113.67 141.347C1115.58 149.302 1115.09 156.116 1110.56 158.706C1106.06 161.296 1099.92 158.336 1094 152.694C1088.08 158.336 1081.94 161.296 1077.41 158.706C1072.91 156.116 1072.42 149.302 1074.33 141.347C1066.5 139.034 1060.85 135.211 1060.85 130C1060.85 124.789 1066.5 120.966 1074.33 118.654C1072.42 110.699 1072.91 103.884 1077.41 101.294C1081.94 98.7043 1088.08 101.664 1094 107.307C1099.92 101.664 1106.06 98.7043 1110.56 101.294ZM1109.66 130C1110.71 132.313 1111.64 134.625 1112.41 136.969C1118.88 135.026 1122.52 132.251 1122.52 130C1122.52 127.749 1118.88 124.974 1112.41 123.032C1111.64 125.375 1110.71 127.688 1109.66 130ZM1078.34 130C1077.29 127.688 1076.36 125.375 1075.59 123.032C1069.12 124.974 1065.48 127.749 1065.48 130C1065.48 132.251 1069.12 135.026 1075.59 136.969C1076.36 134.625 1077.29 132.313 1078.34 130ZM1106.09 136.969L1105.16 138.541C1106.12 138.387 1107.04 138.233 1107.88 138.048C1107.66 137.184 1107.32 136.29 1106.98 135.396L1106.09 136.969ZM1097.18 149.425C1102.08 154.05 1106.33 155.839 1108.25 154.667C1110.22 153.588 1110.8 149.055 1109.23 142.457C1106.86 142.95 1104.36 143.32 1101.83 143.567C1100.35 145.633 1098.78 147.606 1097.18 149.425ZM1081.91 123.032L1082.84 121.459C1081.88 121.614 1080.96 121.768 1080.13 121.953C1080.34 122.816 1080.68 123.71 1081.02 124.604L1081.91 123.032ZM1090.82 110.575C1085.92 105.95 1081.67 104.162 1079.72 105.334C1077.78 106.413 1077.2 110.945 1078.77 117.544C1081.21 117.044 1083.68 116.673 1086.17 116.434C1087.65 114.368 1089.22 112.394 1090.82 110.575Z" fill="#F4F4F4"/>
<g clip-path="url(#clip3_2482_176)">
<mask id="mask1_2482_176" style="mask-type:luminance" maskUnits="userSpaceOnUse" x="931" y="250" width="45" height="45">
<path d="M931 250H976V295H931V250Z" fill="white"/>
</mask>
<g mask="url(#mask1_2482_176)">
<path fill-rule="evenodd" clip-rule="evenodd" d="M931 250H976V295H931V250ZM965.401 287.725C963.314 287.725 962.134 286.638 961.229 285.156L957.792 287.153C959.033 289.606 961.57 291.477 965.498 291.477C969.514 291.477 972.505 289.392 972.505 285.584C972.505 282.053 970.476 280.484 966.884 278.941L965.826 278.489C964.011 277.701 963.226 277.189 963.226 275.92C963.226 274.894 964.013 274.109 965.251 274.109C966.464 274.109 967.246 274.621 967.971 275.92L971.264 273.807C969.871 271.356 967.939 270.421 965.251 270.421C961.474 270.421 959.057 272.836 959.057 276.008C959.057 279.449 961.083 281.078 964.135 282.377L965.193 282.831C967.122 283.675 968.271 284.189 968.271 285.638C968.271 286.849 967.152 287.725 965.401 287.725ZM949.013 287.697C947.56 287.697 946.954 286.703 946.291 285.522L942.848 287.607C943.846 289.718 945.807 291.469 949.191 291.469C952.939 291.469 955.506 289.476 955.506 285.098V270.661H951.278V285.042C951.278 287.155 950.401 287.697 949.011 287.697" fill="#F4F4F4"/>
</g>
</g>
<path d="M1221.31 211.469L1214.79 205L1235.88 183.917H1248.86L1221.31 211.469ZM1235.88 226.083L1224.52 214.727L1235.88 203.371H1248.86L1237.5 214.727L1248.86 226.083H1235.88Z" fill="#F4F4F4"/>
<path d="M414.667 195.386V194.132C414.667 193.157 414.597 192.251 414.387 191.276C414.318 190.301 413.9 189.396 413.481 188.629C412.576 186.956 411.252 185.493 409.441 184.588C408.535 184.17 407.701 183.821 406.724 183.682C405.749 183.613 404.843 183.403 403.868 183.403H381.506C380.739 183.403 380.11 183.472 379.346 183.613C378.626 183.7 377.922 183.888 377.255 184.17C377.047 184.239 376.767 184.378 376.559 184.449C375.951 184.853 375.37 185.294 374.817 185.771C374.607 185.842 374.468 186.052 374.189 186.26C373.535 186.925 372.973 187.674 372.518 188.488C372.1 189.396 371.751 190.23 371.613 191.207C371.472 192.182 371.403 193.088 371.333 194.063V215.799C371.333 216.774 371.403 217.679 371.613 218.654C371.682 219.629 372.1 220.537 372.518 221.371C373.424 223.113 374.748 224.506 376.559 225.412C377.465 225.83 378.299 226.179 379.276 226.318C380.251 226.389 381.157 226.597 382.132 226.597H403.87C404.845 226.597 405.749 226.528 406.724 226.318C407.699 226.248 408.606 225.83 409.441 225.412C411.113 224.506 412.576 223.183 413.481 221.371C413.9 220.466 414.248 219.631 414.387 218.654C414.528 217.679 414.667 216.774 414.667 215.799V195.386ZM407.909 218.585C405.959 214.893 402.405 215.729 400.594 216.704C400.45 216.827 400.285 216.922 400.107 216.984H399.966C396.274 219.072 391.05 219.142 385.963 216.914C381.815 215.063 378.303 212.035 375.862 208.204C377.031 209.12 378.321 209.871 379.694 210.436C385.198 213.012 390.562 212.802 394.462 210.436C388.959 206.254 384.5 200.751 380.877 196.361C380.194 195.595 379.565 194.78 378.997 193.924C383.178 197.755 389.865 202.632 392.235 203.886C387.148 198.591 382.758 191.905 382.897 192.251C390.84 200.264 398.154 204.861 398.154 204.861C398.434 204.931 398.644 205.139 398.852 205.279C398.921 204.861 399.132 204.512 399.27 204.094C400.525 199.497 399.201 194.132 395.927 189.812C403.38 194.201 407.701 202.632 405.889 209.808C405.818 209.877 405.818 210.085 405.818 210.295C409.371 214.544 408.396 219.421 407.909 218.585Z" fill="#F4F4F4"/>
</g>
<defs>
<linearGradient id="paint0_linear_2482_176" x1="744" y1="0" x2="744" y2="244" gradientUnits="userSpaceOnUse">
<stop stop-color="white"/>
<stop offset="1" stop-color="white" stop-opacity="0"/>
</linearGradient>
<linearGradient id="paint1_linear_2482_176" x1="2239" y1="423" x2="2239" y2="667" gradientUnits="userSpaceOnUse">
<stop stop-color="white"/>
<stop offset="1" stop-color="white" stop-opacity="0"/>
</linearGradient>
<clipPath id="clip0_2482_176">
<rect width="1347" height="391" fill="white"/>
</clipPath>
<clipPath id="clip1_2482_176">
<rect width="69" height="69" fill="white" transform="translate(79 94)"/>
</clipPath>
<clipPath id="clip2_2482_176">
<rect width="56" height="56" fill="white" transform="translate(225 239)"/>
</clipPath>
<clipPath id="clip3_2482_176">
<rect width="45" height="45" fill="white" transform="translate(931 250)"/>
</clipPath>
</defs>
</svg>
