<svg width="1347" height="733" viewBox="0 0 1347 733" fill="none" xmlns="http://www.w3.org/2000/svg">
<g clip-path="url(#clip0_2464_171)">
<path d="M113 97.5V708.5" stroke="#EAEAEA"/>
<path d="M253 98V709" stroke="#EAEAEA"/>
<path d="M393 98.5V709.5" stroke="#EAEAEA"/>
<path d="M533 99V710" stroke="#EAEAEA"/>
<path d="M673 99.5V710.5" stroke="#EAEAEA"/>
<path d="M813 100V711" stroke="#EAEAEA"/>
<path d="M953 100.5V711.5" stroke="#EAEAEA"/>
<path d="M1093 101V712" stroke="#EAEAEA"/>
<path d="M1233 101.5V712.5" stroke="#EAEAEA"/>
<path d="M-447 193.5L1793.5 193.5" stroke="#EAEAEA"/>
<path d="M-447 308.5L1793.5 308.5" stroke="#EAEAEA"/>
<path d="M-447 407.5L1793.5 407.5" stroke="#EAEAEA"/>
<path d="M-447 506.5L1793.5 506.5" stroke="#EAEAEA"/>
<path d="M-447 605.5L1793.5 605.5" stroke="#EAEAEA"/>
<rect x="-74" width="1495" height="193" fill="url(#paint0_linear_2464_171)"/>
<rect x="1421" y="733" width="1495" height="193" transform="rotate(180 1421 733)" fill="url(#paint1_linear_2464_171)"/>
</g>
<defs>
<linearGradient id="paint0_linear_2464_171" x1="744" y1="0" x2="744" y2="193" gradientUnits="userSpaceOnUse">
<stop stop-color="white"/>
<stop offset="1" stop-color="white" stop-opacity="0"/>
</linearGradient>
<linearGradient id="paint1_linear_2464_171" x1="2239" y1="733" x2="2239" y2="926" gradientUnits="userSpaceOnUse">
<stop stop-color="white"/>
<stop offset="1" stop-color="white" stop-opacity="0"/>
</linearGradient>
<clipPath id="clip0_2464_171">
<rect width="1347" height="733" fill="white"/>
</clipPath>
</defs>
</svg>
