<svg width="34" height="33" viewBox="0 0 34 33" fill="none" xmlns="http://www.w3.org/2000/svg">
<path d="M17.0004 2.74463C15.1983 2.74463 13.4139 3.09957 11.749 3.7892C10.0841 4.47882 8.57134 5.48962 7.29708 6.76388C4.7236 9.33736 3.27783 12.8278 3.27783 16.4672C3.27783 22.5326 7.21621 27.6786 12.6641 29.5037C13.3502 29.6134 13.5698 29.188 13.5698 28.8175V26.4984C9.76861 27.3218 8.95898 24.6596 8.95898 24.6596C8.32774 23.0678 7.43577 22.6424 7.43577 22.6424C6.18702 21.7916 7.53183 21.819 7.53183 21.819C8.90409 21.9151 9.63139 23.2324 9.63139 23.2324C10.8253 25.3183 12.8425 24.7008 13.6247 24.3714C13.7482 23.4794 14.105 22.8757 14.4892 22.5326C11.4428 22.1895 8.24541 21.0094 8.24541 15.7811C8.24541 14.2579 8.76687 13.0366 9.65883 12.0623C9.52161 11.7192 9.04132 10.292 9.79606 8.4395C9.79606 8.4395 10.9488 8.06899 13.5698 9.8392C14.6539 9.53731 15.834 9.38636 17.0004 9.38636C18.1668 9.38636 19.347 9.53731 20.4311 9.8392C23.0521 8.06899 24.2048 8.4395 24.2048 8.4395C24.9595 10.292 24.4792 11.7192 24.342 12.0623C25.234 13.0366 25.7554 14.2579 25.7554 15.7811C25.7554 21.0231 22.5443 22.1758 19.4842 22.5189C19.9782 22.9443 20.4311 23.7813 20.4311 25.0575V28.8175C20.4311 29.188 20.6506 29.6272 21.3505 29.5037C26.7983 27.6648 30.723 22.5326 30.723 16.4672C30.723 14.6651 30.3681 12.8807 29.6784 11.2158C28.9888 9.5509 27.978 8.03814 26.7037 6.76388C25.4295 5.48962 23.9167 4.47882 22.2518 3.7892C20.5869 3.09957 18.8025 2.74463 17.0004 2.74463Z" fill="#AAAAAA"/>
</svg>
