<svg width="33" height="33" viewBox="0 0 33 33" fill="none" xmlns="http://www.w3.org/2000/svg">
<path d="M10.7037 2.74463H22.2307C26.6219 2.74463 30.1898 6.3125 30.1898 10.7037V22.2307C30.1898 24.3416 29.3513 26.366 27.8586 27.8586C26.366 29.3513 24.3416 30.1898 22.2307 30.1898H10.7037C6.3125 30.1898 2.74463 26.6219 2.74463 22.2307V10.7037C2.74463 8.59284 3.58317 6.56842 5.07579 5.07579C6.56842 3.58317 8.59284 2.74463 10.7037 2.74463ZM10.4293 5.48915C9.11907 5.48915 7.86253 6.00962 6.93608 6.93608C6.00962 7.86253 5.48915 9.11907 5.48915 10.4293V22.5051C5.48915 25.2359 7.69848 27.4453 10.4293 27.4453H22.5051C23.8154 27.4453 25.0719 26.9248 25.9983 25.9983C26.9248 25.0719 27.4453 23.8154 27.4453 22.5051V10.4293C27.4453 7.69848 25.2359 5.48915 22.5051 5.48915H10.4293ZM23.6716 7.54753C24.1265 7.54753 24.5628 7.72825 24.8845 8.04994C25.2062 8.37162 25.3869 8.80792 25.3869 9.26286C25.3869 9.71779 25.2062 10.1541 24.8845 10.4758C24.5628 10.7975 24.1265 10.9782 23.6716 10.9782C23.2166 10.9782 22.7803 10.7975 22.4587 10.4758C22.137 10.1541 21.9562 9.71779 21.9562 9.26286C21.9562 8.80792 22.137 8.37162 22.4587 8.04994C22.7803 7.72825 23.2166 7.54753 23.6716 7.54753ZM16.4672 9.60592C18.2869 9.60592 20.0321 10.3288 21.3189 11.6155C22.6056 12.9023 23.3285 14.6475 23.3285 16.4672C23.3285 18.2869 22.6056 20.0321 21.3189 21.3189C20.0321 22.6056 18.2869 23.3285 16.4672 23.3285C14.6475 23.3285 12.9023 22.6056 11.6155 21.3189C10.3288 20.0321 9.60592 18.2869 9.60592 16.4672C9.60592 14.6475 10.3288 12.9023 11.6155 11.6155C12.9023 10.3288 14.6475 9.60592 16.4672 9.60592ZM16.4672 12.3504C15.3754 12.3504 14.3283 12.7842 13.5562 13.5562C12.7842 14.3283 12.3504 15.3754 12.3504 16.4672C12.3504 17.559 12.7842 18.6062 13.5562 19.3782C14.3283 20.1503 15.3754 20.584 16.4672 20.584C17.559 20.584 18.6062 20.1503 19.3782 19.3782C20.1503 18.6062 20.584 17.559 20.584 16.4672C20.584 15.3754 20.1503 14.3283 19.3782 13.5562C18.6062 12.7842 17.559 12.3504 16.4672 12.3504Z" fill="#AAAAAA"/>
</svg>
