<svg width="33" height="33" viewBox="0 0 33 33" fill="none" xmlns="http://www.w3.org/2000/svg">
<path d="M17.905 12.3504H25.4524L17.905 4.80302V12.3504ZM8.2992 2.74463H19.2773L27.5108 10.9782V27.4453C27.5108 28.1732 27.2217 28.8712 26.707 29.3859C26.1923 29.9006 25.4942 30.1898 24.7663 30.1898H8.2992C7.57131 30.1898 6.87323 29.9006 6.35854 29.3859C5.84384 28.8712 5.55469 28.1732 5.55469 27.4453V5.48915C5.55469 3.96594 6.776 2.74463 8.2992 2.74463ZM19.2773 27.4453V26.073C19.2773 24.2479 15.6133 23.3285 13.7882 23.3285C11.9631 23.3285 8.2992 24.2479 8.2992 26.073V27.4453H19.2773ZM13.7882 16.4672C13.0603 16.4672 12.3623 16.7564 11.8476 17.2711C11.3329 17.7858 11.0437 18.4838 11.0437 19.2117C11.0437 19.9396 11.3329 20.6377 11.8476 21.1524C12.3623 21.6671 13.0603 21.9562 13.7882 21.9562C14.5161 21.9562 15.2142 21.6671 15.7289 21.1524C16.2436 20.6377 16.5328 19.9396 16.5328 19.2117C16.5328 18.4838 16.2436 17.7858 15.7289 17.2711C15.2142 16.7564 14.5161 16.4672 13.7882 16.4672Z" fill="#AAAAAA"/>
</svg>
