<svg width="172" height="172" viewBox="0 0 172 172" fill="none" xmlns="http://www.w3.org/2000/svg">
<path d="M22.9973 23.0017H148.997V149.002H22.9973V23.0017Z" fill="#F5DE19"/>
<path d="M107.642 121.437C108.717 123.616 110.385 125.448 112.455 126.721C114.525 127.995 116.912 128.659 119.342 128.637C124.247 128.637 127.383 126.184 127.383 122.787C127.383 118.737 124.161 117.288 118.761 114.925L115.8 113.656C107.25 110.016 101.58 105.457 101.58 95.8181C101.58 86.9396 108.33 80.1761 118.919 80.1761C122.346 79.9292 125.771 80.6966 128.765 82.3826C131.76 84.0687 134.192 86.5988 135.758 89.6576L126.501 95.5751C125.898 94.0586 124.848 92.7612 123.491 91.8548C122.133 90.9483 120.533 90.4756 118.901 90.4991C118.189 90.4278 117.47 90.5057 116.789 90.7277C116.109 90.9496 115.482 91.3109 114.949 91.7884C114.416 92.266 113.989 92.8493 113.694 93.5013C113.398 94.1532 113.242 94.8595 113.235 95.5751C113.235 99.1256 115.436 100.566 120.516 102.775L123.477 104.044C133.539 108.36 139.227 112.756 139.227 122.643C139.227 133.303 130.853 139.144 119.607 139.144C115.226 139.42 110.858 138.424 107.03 136.276C103.202 134.128 100.076 130.918 98.0298 127.035L107.642 121.437ZM65.8143 122.463C67.6728 125.761 69.3648 128.551 73.4328 128.551C77.3208 128.551 79.7778 127.03 79.7778 121.113V80.8511H91.6173V121.27C91.6173 133.528 84.4173 139.108 73.9368 139.108C70.2322 139.311 66.553 138.387 63.3829 136.46C60.2128 134.532 57.7001 131.69 56.1753 128.308L65.8143 122.463Z" fill="black"/>
</svg>
