<svg width="172" height="172" viewBox="0 0 172 172" fill="none" xmlns="http://www.w3.org/2000/svg">
<g clip-path="url(#clip0_2494_116)">
<path d="M135.152 62.5445C133.545 61.9933 131.924 61.4825 130.292 61.0127C130.566 59.892 130.819 58.7849 131.043 57.6972C134.722 39.8361 132.317 25.4469 124.101 20.7093C116.223 16.1675 103.341 20.9033 90.3299 32.2266C89.0475 33.3445 87.7937 34.4946 86.5696 35.676C85.7501 34.8905 84.9161 34.1202 84.0681 33.3655C70.4321 21.2584 56.7642 16.1557 48.5571 20.9069C40.6868 25.4628 38.3564 38.9897 41.6689 55.917C41.9985 57.5935 42.3706 59.2613 42.7849 60.9189C40.8502 61.4686 38.9834 62.0538 37.1967 62.6766C21.2096 68.2507 11 76.9857 11 86.0463C11 95.4041 21.9605 104.79 38.6118 110.482C39.9618 110.941 41.3229 111.367 42.6941 111.759C42.2489 113.544 41.8536 115.341 41.5085 117.149C38.3505 133.782 40.8166 146.99 48.6657 151.517C56.7725 156.192 70.379 151.387 83.6275 139.805C84.7017 138.864 85.7523 137.895 86.7784 136.901C88.1041 138.181 89.4652 139.422 90.8601 140.626C103.694 151.669 116.369 156.128 124.21 151.589C132.309 146.9 134.942 132.712 131.524 115.45C131.255 114.098 130.953 112.752 130.619 111.414C131.574 111.131 132.512 110.84 133.426 110.537C150.737 104.802 162 95.5292 162 86.0463C162 76.9526 151.461 68.1587 135.152 62.5445ZM131.398 104.414C130.571 104.687 129.726 104.951 128.861 105.207C126.95 99.1573 124.372 92.7245 121.215 86.0775C124.227 79.5892 126.707 73.2384 128.564 67.2279C130.109 67.675 131.608 68.1463 133.053 68.6435C147.026 73.4543 155.549 80.566 155.549 86.0463C155.549 91.8833 146.344 99.4611 131.398 104.414ZM125.196 116.703C126.707 124.335 126.923 131.237 125.922 136.632C125.023 141.48 123.214 144.712 120.978 146.006C116.219 148.761 106.043 145.18 95.0675 135.736C93.7701 134.617 92.504 133.463 91.2707 132.273C95.5258 127.62 99.778 122.211 103.928 116.203C111.228 115.555 118.124 114.496 124.379 113.05C124.687 114.293 124.96 115.511 125.196 116.703ZM62.4792 145.53C57.8301 147.172 54.127 147.219 51.8886 145.928C47.1256 143.181 45.1455 132.577 47.8464 118.352C48.1674 116.671 48.5351 114.999 48.9488 113.339C55.1339 114.707 61.9802 115.691 69.2972 116.285C73.4757 122.164 77.8505 127.567 82.2596 132.299C81.3226 133.205 80.3634 134.089 79.3829 134.948C73.524 140.069 67.6533 143.703 62.4792 145.53ZM40.6986 104.378C33.3356 101.861 27.2549 98.5905 23.0871 95.0213C19.3416 91.8143 17.4511 88.6298 17.4511 86.0463C17.4511 80.5477 25.6482 73.5345 39.3202 68.768C40.9794 68.1899 42.7159 67.6443 44.5179 67.1323C46.4077 73.2785 48.8863 79.7048 51.8774 86.2032C48.8473 92.7976 46.3334 99.3266 44.4253 105.545C43.1737 105.187 41.9311 104.798 40.6986 104.378ZM47.9997 54.6778C45.162 40.1753 47.0465 29.2355 51.7895 26.4897C56.8409 23.5653 68.0113 27.7349 79.7852 38.1893C80.553 38.8725 81.3083 39.5696 82.0508 40.2803C77.6636 44.9914 73.3288 50.3548 69.1875 56.199C62.0858 56.8572 55.2878 57.9142 49.0378 59.3305C48.6527 57.7888 48.3065 56.237 47.9997 54.6778ZM113.134 70.7622C111.658 68.2123 110.127 65.6945 108.542 63.2105C113.36 63.8198 117.976 64.6284 122.311 65.617C121.01 69.7884 119.388 74.1491 117.479 78.6201C116.083 75.9722 114.635 73.3523 113.134 70.7622ZM86.5726 44.8911C89.5477 48.1146 92.5276 51.7132 95.4585 55.618C89.5129 55.3372 83.5574 55.336 77.6116 55.6144C80.5455 51.7457 83.5508 48.1517 86.5726 44.8911ZM59.8402 70.8059C58.3587 73.3751 56.9374 75.9786 55.5774 78.6142C53.6994 74.1591 52.0921 69.7784 50.7797 65.548C55.0879 64.5842 59.6822 63.7962 64.4693 63.1981C62.8671 65.6973 61.3236 68.2343 59.8402 70.8059ZM64.6068 109.353C59.6609 108.801 54.9976 108.053 50.6906 107.115C52.0236 102.81 53.6663 98.3357 55.5851 93.785C56.9505 96.4226 58.3777 99.0277 59.8656 101.598C61.3957 104.241 62.98 106.829 64.6068 109.353ZM86.7507 127.656C83.6929 124.357 80.6434 120.708 77.6653 116.783C80.5567 116.896 83.5042 116.954 86.5 116.954C89.5778 116.954 92.6202 116.885 95.6149 116.752C92.6745 120.747 89.7058 124.402 86.7507 127.656ZM117.539 93.5526C119.558 98.1534 121.259 102.604 122.61 106.836C118.232 107.835 113.505 108.64 108.524 109.237C110.12 106.707 111.666 104.145 113.16 101.554C114.679 98.9196 116.139 96.2519 117.539 93.5526ZM107.572 98.3309C105.285 102.304 102.869 106.202 100.328 110.019C95.7261 110.345 91.1137 110.507 86.5 110.504C81.8007 110.504 77.23 110.358 72.8286 110.072C70.2215 106.265 67.7595 102.36 65.4479 98.3663C63.1468 94.3939 60.9982 90.3354 59.0056 86.1996C60.9932 82.0629 63.1359 78.0025 65.429 74.027L65.4284 74.0276C67.7204 70.0509 70.1627 66.1628 72.7502 62.3717C77.2406 62.0319 81.8455 61.855 86.4994 61.855C91.1745 61.855 95.7859 62.0337 100.275 62.3758C102.837 66.1613 105.263 70.036 107.551 73.9928C109.851 77.9597 112.022 82.0003 114.06 86.1082C112.043 90.2581 109.879 94.3349 107.572 98.3309ZM120.879 26.2969C125.935 29.213 127.902 40.9728 124.725 56.3942C124.521 57.3789 124.295 58.3796 124.047 59.3965C117.781 57.9502 110.979 56.8749 103.856 56.2066C99.7072 50.2982 95.4078 44.9265 91.0919 40.2761C92.2231 39.1859 93.3811 38.1238 94.5649 37.091C105.713 27.3898 116.132 23.5594 120.879 26.2969ZM86.5 72.5624C93.9468 72.5624 99.9838 78.5995 99.9838 86.0463C99.9838 93.493 93.9468 99.5301 86.5 99.5301C79.0532 99.5301 73.0162 93.493 73.0162 86.0463C73.0162 78.5995 79.0532 72.5624 86.5 72.5624Z" fill="#00D8FF"/>
</g>
<defs>
<clipPath id="clip0_2494_116">
<rect width="151" height="134.484" fill="white" transform="translate(11 19)"/>
</clipPath>
</defs>
</svg>
