<svg width="172" height="172" viewBox="0 0 172 172" fill="none" xmlns="http://www.w3.org/2000/svg">
<path d="M120.774 20.1516H51.2604C34.3231 20.1516 20.5928 33.882 20.5928 50.8192V120.332C20.5928 137.27 34.3231 151 51.2604 151H120.774C137.711 151 151.441 137.27 151.441 120.332V50.8192C151.441 33.882 137.711 20.1516 120.774 20.1516Z" fill="url(#paint0_linear_2494_106)"/>
<path d="M124.186 100.932L124.556 99.4521C129.982 77.8703 116.787 52.2189 94.3416 38.7762C104.207 52.0952 108.524 68.2509 104.701 82.3099C104.33 83.5433 103.96 84.7766 103.467 86.0099C102.974 85.6399 102.358 85.2698 101.494 84.8998C101.494 84.8998 79.1723 71.0871 55.0007 46.7922C54.3837 46.1758 67.9495 66.1542 83.2419 82.3099C75.966 78.2403 55.864 63.5643 43.0377 51.972C44.6411 54.5619 46.4909 57.1517 48.4644 59.4948C59.0702 73.0606 73.0061 89.7095 89.655 102.535C77.939 109.688 61.4133 110.305 45.0112 102.535C40.9416 100.685 37.1184 98.3424 33.5415 95.7525C40.4479 106.852 51.1774 116.471 64.25 122.144C79.7888 128.803 95.328 128.434 106.797 122.267C106.797 122.267 106.92 122.267 106.92 122.144C107.414 121.898 107.907 121.528 108.401 121.281C113.95 118.444 124.803 115.608 130.723 126.954C132.449 129.544 135.532 114.744 124.186 100.932Z" fill="black"/>
<path d="M104.701 82.3099C108.524 68.2509 104.207 52.0952 94.3416 38.7762L70.9831 20H46.3808L37.192 23.557L28.8924 29.4852L23.557 37.7848L20 46.7922V80.4684L33.5415 95.7525C37.1184 98.3424 40.9416 100.685 45.0112 102.535C61.4133 110.305 77.939 109.688 89.655 102.535C73.0061 89.7095 59.0702 73.0606 48.4644 59.4948C46.4909 57.1517 44.6411 54.5619 43.0377 51.972C55.864 63.5643 75.966 78.2403 83.2419 82.3099C67.9495 66.1542 54.3837 46.1758 55.0007 46.7922C79.1723 71.0871 101.494 84.8998 101.494 84.8998C102.358 85.2698 102.974 85.6399 103.467 86.0099C103.96 84.7766 104.33 83.5433 104.701 82.3099Z" fill="white" fill-opacity="0.22"/>
<defs>
<linearGradient id="paint0_linear_2494_106" x1="38.3776" y1="151.015" x2="134.416" y2="33.635" gradientUnits="userSpaceOnUse">
<stop stop-color="#0075FD"/>
<stop offset="1" stop-color="#00D3FF"/>
</linearGradient>
</defs>
</svg>
