<svg width="172" height="172" viewBox="0 0 172 172" fill="none" xmlns="http://www.w3.org/2000/svg">
<g clip-path="url(#clip0_2494_121)">
<path d="M85.9878 38.5972C64.9253 38.5972 51.766 49.1241 46.4963 70.1866C54.3922 59.6585 63.6097 55.7105 74.1379 58.3429C80.1492 59.8411 84.4452 64.2 89.2026 69.0303C96.9454 76.8878 105.908 85.9844 125.479 85.9844C146.541 85.9844 159.701 75.4563 164.971 54.3888C157.072 64.9223 147.858 68.8723 137.328 66.2387C131.318 64.7393 127.027 60.3816 122.263 55.5513C114.525 47.6938 105.566 38.5972 85.9878 38.5972ZM46.4963 85.9844C25.4351 85.9844 12.2745 96.5126 7.00488 117.58C14.9024 107.047 24.1162 103.097 34.6464 105.73C40.6578 107.23 44.9537 111.587 49.7112 116.418C57.454 124.275 66.4161 133.372 85.9878 133.372C107.049 133.372 120.21 122.845 125.479 101.782C117.581 112.311 108.367 116.259 97.8365 113.626C91.8264 112.128 87.5354 107.769 82.7717 102.939C75.0338 95.0811 66.0742 85.9844 46.4963 85.9844Z" fill="#38BDF8"/>
</g>
<defs>
<clipPath id="clip0_2494_121">
<rect width="157.966" height="157.966" fill="white" transform="translate(7 7)"/>
</clipPath>
</defs>
</svg>
